<svg width="60" height="60" viewBox="0 0 60 60" fill="none" xmlns="http://www.w3.org/2000/svg">
<rect width="60" height="60" rx="14" fill="white"/>
<path d="M20.3193 49V25.2512H20.2461L13.1599 29.9937V27.4668L20.2827 22.5779H22.718V49H20.3193ZM38.3552 49.4211C36.3655 49.4211 34.6565 48.8657 33.2283 47.7549C31.8123 46.644 30.7197 45.0754 29.9507 43.0491C29.1938 41.0105 28.8154 38.5996 28.8154 35.8164V35.7615C28.8154 32.9661 29.1938 30.5552 29.9507 28.5288C30.7197 26.4902 31.8123 24.9216 33.2283 23.823C34.6565 22.7122 36.3655 22.1567 38.3552 22.1567C40.345 22.1567 42.054 22.7122 43.4822 23.823C44.9104 24.9216 46.0029 26.4902 46.7598 28.5288C47.5288 30.5674 47.9133 32.9783 47.9133 35.7615V35.8164C47.9133 38.6118 47.5288 41.0288 46.7598 43.0674C46.0029 45.0938 44.9104 46.6624 43.4822 47.7732C42.054 48.8718 40.345 49.4211 38.3552 49.4211ZM38.3552 47.2239C39.8323 47.2239 41.0957 46.76 42.1455 45.8323C43.2075 44.9045 44.0193 43.5862 44.5808 41.8772C45.1423 40.1682 45.4231 38.1479 45.4231 35.8164V35.7615C45.4231 33.4177 45.1423 31.3975 44.5808 29.7007C44.0193 27.9917 43.2075 26.6733 42.1455 25.7456C41.0957 24.8179 39.8323 24.354 38.3552 24.354C36.8782 24.354 35.6147 24.8179 34.5649 25.7456C33.5151 26.6733 32.7095 27.9917 32.1479 29.7007C31.5986 31.4097 31.324 33.4299 31.324 35.7615V35.8164C31.324 38.1479 31.5986 40.1682 32.1479 41.8772C32.7095 43.5862 33.5151 44.9045 34.5649 45.8323C35.6147 46.76 36.8782 47.2239 38.3552 47.2239Z" fill="#262626"/>
<path d="M17.321 15.333V7.23022H19.2639L21.5044 13.1599H21.6055L23.8403 7.23022H25.7832V15.333H24.2727V9.81885H23.436L25.0532 7.45483L22.0828 15.333H21.0215L18.0566 7.45483L19.6682 9.81885H18.8315V15.333H17.321ZM31.2974 15.5408C30.4963 15.5408 29.8037 15.3686 29.2197 15.0242C28.6357 14.676 28.1847 14.1838 27.8665 13.5474C27.552 12.911 27.3948 12.1567 27.3948 11.2844V11.2732C27.3948 10.3972 27.5539 9.6429 27.8721 9.01025C28.194 8.37386 28.647 7.88346 29.231 7.53906C29.8149 7.19466 30.5037 7.02246 31.2974 7.02246C32.0947 7.02246 32.7835 7.19466 33.3638 7.53906C33.9478 7.88346 34.3988 8.37386 34.717 9.01025C35.0352 9.64665 35.1943 10.401 35.1943 11.2732V11.2844C35.1943 12.1567 35.0352 12.911 34.717 13.5474C34.4026 14.1838 33.9534 14.676 33.3694 15.0242C32.7854 15.3686 32.0947 15.5408 31.2974 15.5408ZM31.2974 14.1033C31.7354 14.1033 32.1172 13.9872 32.4429 13.7551C32.7686 13.523 33.0194 13.1955 33.1953 12.7725C33.375 12.3494 33.4648 11.8534 33.4648 11.2844V11.2732C33.4648 10.7004 33.375 10.2044 33.1953 9.78516C33.0194 9.36214 32.7686 9.03646 32.4429 8.80811C32.1172 8.57601 31.7354 8.45996 31.2974 8.45996C30.8594 8.45996 30.4775 8.57601 30.1519 8.80811C29.8262 9.03646 29.5735 9.36214 29.3938 9.78516C29.2141 10.2044 29.1243 10.7004 29.1243 11.2732V11.2844C29.1243 11.8534 29.2122 12.3494 29.3882 12.7725C29.5679 13.1955 29.8187 13.523 30.1406 13.7551C30.4663 13.9872 30.8519 14.1033 31.2974 14.1033ZM36.8059 15.333V7.23022H38.2209L42.3931 12.9915L41.2083 12.3906H42.0505V7.23022H43.6733V15.333H42.2695L38.0862 9.54932L39.2766 10.1501H38.4287V15.333H36.8059Z" fill="#FF3A2F"/>
</svg>
